C:\Users\febre\Documents\GitHub\PredSim-workshop-bcn-2024\S4 Modelling neuromusculoskeletal deficits\Code\Example 3 - Motor control\Results\BCN_CP1\BCN_CP1_v1.mot
version=1
nRows=16
nColumns=29
inDegrees=yes
endheader
                time	         pelvis_tilt	           pelvis_tx	           pelvis_ty	       hip_flexion_l	       hip_flexion_r	        knee_angle_l	        knee_angle_r	       ankle_angle_l	       ankle_angle_r	    lumbar_extension	hamstrings_r/activation	bifemsh_r/activation	glut_max_r/activation	iliopsoas_r/activation	rect_fem_r/activation	  vasti_r/activation	gastroc_r/activation	 soleus_r/activation	tib_ant_r/activation	hamstrings_l/activation	bifemsh_l/activation	glut_max_l/activation	iliopsoas_l/activation	rect_fem_l/activation	  vasti_l/activation	gastroc_l/activation	 soleus_l/activation	tib_ant_l/activation	
          0.48067566	         -8.21061093	          0.61571817	          0.90787102	         31.19179543	        -11.92740593	        -27.12230103	        -11.87857325	         10.11128631	        -19.40391675	          1.93491722	          0.07071792	          0.13501068	          0.08685259	          0.15790344	          0.18316668	          0.07890224	          0.14733997	          0.14785157	          0.17377195	          0.06326498	          0.13641367	          0.22726149	          0.05000001	          0.05525076	          0.50108390	          0.08649195	          0.11978008	          0.25346471	
          0.49028917	         -8.22677246	          0.63004295	          0.90828742	         30.44880014	        -12.11527542	        -27.50139186	        -12.54841827	         10.79725678	        -19.34173070	          2.22591506	          0.07398177	          0.12036937	          0.08842299	          0.16880770	          0.20371740	          0.08451810	          0.12699263	          0.12743351	          0.20149887	          0.06669051	          0.11757518	          0.22536775	          0.05000010	          0.05331448	          0.50183314	          0.10654287	          0.13985296	          0.22873451	
          0.49990269	         -8.24752101	          0.64406212	          0.90913551	         29.62119334	        -12.28724448	        -27.67785220	        -12.96961889	         11.37973096	        -18.86289995	          2.48695240	          0.07079743	          0.10596912	          0.08628036	          0.16399218	          0.20236156	          0.08221018	          0.10964489	          0.10983515	          0.20138066	          0.06731013	          0.10133826	          0.22086531	          0.05000004	          0.05161112	          0.48818043	          0.12364956	          0.15747287	          0.20462674	
          0.50951620	         -8.27339567	          0.65779661	          0.91040718	         28.71299597	        -12.44824647	        -27.65422032	        -13.11528587	         11.82053094	        -18.19370322	          2.72166621	          0.06894322	          0.09496914	          0.08118754	          0.15797643	          0.19846967	          0.07722666	          0.09450312	          0.09466710	          0.19785261	          0.06939757	          0.08734368	          0.20952447	          0.05000005	          0.05000070	          0.45627961	          0.14237862	          0.17234255	          0.18144719	
          0.51912971	         -8.30291803	          0.67126194	          0.91205349	         27.73465936	        -12.59025618	        -27.45137771	        -13.01915897	         12.11493755	        -17.38078424	          2.93052304	          0.06530385	          0.08369223	          0.07620865	          0.15179006	          0.19367783	          0.07417133	          0.08145240	          0.08159373	          0.19344987	          0.07185438	          0.07872178	          0.19612522	          0.05000004	          0.05000010	          0.41684681	          0.16043259	          0.18580459	          0.16350783	
          0.52874323	         -8.33498991	          0.68447603	          0.91400081	         26.70003278	        -12.70649946	        -27.09753201	        -12.72526013	         12.27369541	        -16.47858405	          3.11466801	          0.06103326	          0.07370857	          0.07074666	          0.14289473	          0.18642691	          0.06981766	          0.07020396	          0.07032577	          0.18480568	          0.07390381	          0.07290388	          0.18174953	          0.05000004	          0.05000014	          0.37535090	          0.17638750	          0.19711821	          0.14632810	
          0.53835674	         -8.36869709	          0.69745567	          0.91616754	         25.62207338	        -12.79365902	        -26.61898352	        -12.26453810	         12.30697079	        -15.48918473	          3.27519906	          0.05661929	          0.06458257	          0.06382296	          0.13385102	          0.17645205	          0.06534615	          0.06050891	          0.06061390	          0.17497260	          0.07525426	          0.06473261	          0.16854323	          0.05000003	          0.05000015	          0.33613055	          0.19104840	          0.20763648	          0.12738770	
          0.54797025	         -8.40339865	          0.71021465	          0.91847902	         24.51073188	        -12.84905230	        -26.03596485	        -11.65609585	         12.22446252	        -14.45316018	          3.41306118	          0.05147626	          0.05566482	          0.05848677	          0.12746606	          0.16906465	          0.06164335	          0.05215275	          0.05224323	          0.16295937	          0.07628920	          0.05724665	          0.15779790	          0.05000003	          0.05000013	          0.30065201	          0.20403770	          0.21674828	          0.10979632	
          0.55758377	         -8.43872285	          0.72276420	          0.92087107	         23.37348869	        -12.87046804	        -25.36514266	        -10.91415783	         12.04540281	        -13.42431993	          3.52913946	          0.05000465	          0.05233522	          0.05666246	          0.12572765	          0.16515093	          0.06021682	          0.05000002	          0.05000002	          0.16271004	          0.07792939	          0.05330153	          0.14658328	          0.05000002	          0.05000003	          0.26824695	          0.21635751	          0.22544848	          0.09709734	
          0.56719728	         -8.47447846	          0.73511213	          0.92328761	         22.21810373	        -12.85380717	        -24.62365225	        -10.05695420	         11.79009982	        -12.47171376	          3.62405401	          0.05000034	          0.05396271	          0.05791461	          0.12620399	          0.16483809	          0.06057252	          0.05000003	          0.05000001	          0.16453114	          0.07945411	          0.05000077	          0.13619200	          0.05000002	          0.05000002	          0.23815686	          0.22735093	          0.23310062	          0.08378802	
          0.57681079	         -8.51062863	          0.74726108	          0.92567944	         21.05371731	        -12.79209747	        -23.82955615	         -9.11310860	         11.47188569	        -11.59608343	          3.69791283	          0.05065742	          0.05353543	          0.05920060	          0.12678273	          0.16477772	          0.06096535	          0.05000002	          0.05000002	          0.16637656	          0.08068572	          0.05000008	          0.12635531	          0.05000002	          0.05000006	          0.20991431	          0.23590001	          0.23861411	          0.07466836	
          0.58642431	         -8.54755253	          0.75921124	          0.92800158	         19.89125991	        -12.67799658	        -23.00430298	         -8.11177528	         11.11110540	        -10.76888650	          3.75095681	          0.05139176	          0.05386716	          0.06014055	          0.12829383	          0.16697037	          0.06174180	          0.05000006	          0.05000001	          0.16887019	          0.08225376	          0.05000005	          0.11727966	          0.05000002	          0.05000025	          0.18316014	          0.24415382	          0.24395317	          0.06825060	
          0.59603782	         -8.58595424	          0.77096210	          0.93021318	         18.74273172	        -12.50504876	        -22.17021932	         -7.07724040	         10.72256830	         -9.97487059	          3.78367648	          0.05203597	          0.05401651	          0.06181350	          0.13004347	          0.16988102	          0.06271989	          0.05000007	          0.05000001	          0.17162714	          0.08362834	          0.05000004	          0.10863660	          0.05000002	          0.05000019	          0.15786638	          0.25156359	          0.24862104	          0.06222605	
          0.60565133	         -8.62667576	          0.78251204	          0.93227926	         17.62128083	        -12.26802066	        -21.35083278	         -6.02870253	         10.31687487	         -9.20732376	          3.79656505	          0.05272292	          0.05417571	          0.06272097	          0.13248199	          0.17298560	          0.06376312	          0.05000005	          0.05000001	          0.17456747	          0.08487603	          0.05000004	          0.10122351	          0.05000003	          0.05000018	          0.13606544	          0.25817976	          0.25088467	          0.05700841	
          0.61526485	         -8.67055572	          0.79385943	          0.93417150	         16.53867266	        -11.96183042	        -20.56736805	         -4.98401913	          9.90569757	         -8.46017557	          3.79009965	          0.05336378	          0.05432433	          0.06404386	          0.13449737	          0.17588131	          0.06473618	          0.05000006	          0.05000001	          0.17731015	          0.08565794	          0.05000002	          0.09391764	          0.05000003	          0.05000014	          0.11727530	          0.26300070	          0.25355423	          0.05219488	
          0.62487836	         -8.71737301	          0.80500453	          0.93586996	         15.50273801	        -11.58303481	        -19.83636744	         -3.95928380	          9.50135666	         -7.73314679	          3.76372174	          0.05367516	          0.05404542	          0.06200917	          0.13720982	          0.17972777	          0.06594287	          0.05000002	          0.05000001	          0.18004999	          0.08581667	          0.05000032	          0.09033432	          0.05000003	          0.05000017	          0.10543113	          0.26451152	          0.25410122	          0.05000004	
